<?xml version="1.0" encoding="UTF-8"?>
<svg version="1.1" xmlns="http://www.w3.org/2000/svg" width="300" height="300">
<path d="M0 0 C0.80953125 0.29132813 1.6190625 0.58265625 2.453125 0.8828125 C4.31511988 1.55339108 6.16009934 2.27098276 8 3 C7.67 3.99 7.34 4.98 7 6 C5.71609375 6.15855469 4.4321875 6.31710938 3.109375 6.48046875 C-20.49979085 9.5352425 -44.6465217 15.14823234 -66 26 C-64.42780056 29.14439888 -61.2854916 29.49954025 -58.125 30.5625 C-57.48691406 30.78357422 -56.84882813 31.00464844 -56.19140625 31.23242188 C-53.46714906 32.17368402 -50.73435537 33.08854821 -48 34 C-47.773125 33.175 -47.54625 32.35 -47.3125 31.5 C-45.74879306 27.33011483 -43.801812 23.48355854 -41 20 C-35.57364835 18.19121612 -29.66885438 18.94799216 -24 19 C-26.97 25.27 -29.94 31.54 -33 38 C-30.03 38.33 -27.06 38.66 -24 39 C-22.24722811 39.31714714 -20.49934409 39.66485295 -18.76245117 40.05981445 C-17.38007515 40.37067741 -17.38007515 40.37067741 -15.96977234 40.68782043 C-15.00392715 40.9107225 -14.03808197 41.13362457 -13.04296875 41.36328125 C-12.0187532 41.5965361 -10.99453766 41.82979095 -9.93928528 42.07011414 C-7.78308595 42.56270614 -5.62746838 43.05785095 -3.47241211 43.55541992 C-0.20932387 44.30747021 3.05626997 45.04780113 6.32226562 45.78710938 C19.49066358 48.79315636 32.29636966 51.78609475 44.4375 57.875 C45.43813477 58.34486328 45.43813477 58.34486328 46.45898438 58.82421875 C51.18184828 61.16930053 53.93072594 63.69727935 57 68 C58.44910062 72.34730186 58.7775946 76.21096894 56.921875 80.48046875 C54.45132893 83.71929438 51.59996521 85.22580526 48 86.9375 C47.29286865 87.27958496 46.5857373 87.62166992 45.85717773 87.97412109 C26.07938959 97.22059875 3.62343454 101.7397012 -17.79296875 105.359375 C-21.0479626 105.88886307 -21.0479626 105.88886307 -24.05859375 107.3515625 C-27 108 -27 108 -29.9921875 106.2265625 C-30.94351563 105.36804688 -31.89484375 104.50953125 -32.875 103.625 C-33.84179688 102.77164063 -34.80859375 101.91828125 -35.8046875 101.0390625 C-36.52914062 100.36617188 -37.25359375 99.69328125 -38 99 C-37.4480752 93.49608326 -37.4480752 93.49608326 -35.46875 91.3046875 C-34.8190625 90.83289063 -34.169375 90.36109375 -33.5 89.875 C-26.37008437 84.10929205 -18.7970492 75.61736195 -17.6640625 66.2109375 C-17.65117187 65.27507812 -17.63828125 64.33921875 -17.625 63.375 C-17.59664062 62.43398437 -17.56828125 61.49296875 -17.5390625 60.5234375 C-17.74670156 57.84212631 -17.74670156 57.84212631 -20.0234375 56.3515625 C-20.67570313 55.90554687 -21.32796875 55.45953125 -22 55 C-22 54.01 -22 53.02 -22 52 C-15.94494771 51.7757388 -9.67429108 51.63083723 -4 54 C-0.67581176 57.24070406 0.66599041 60.958676 2.0625 65.3125 C1.91041785 74.28534684 -2.40218656 81.29755138 -8 88 C-9.00376532 89.33050102 -10.00423044 90.6635043 -11 92 C18.88368375 84.26580052 18.88368375 84.26580052 43 67 C36.40034831 62.35042854 29.94241242 60.16927001 22.1875 58.0625 C20.96861084 57.72404053 19.74972168 57.38558105 18.49389648 57.03686523 C9.89446434 54.68955575 1.25380396 52.5416108 -7.4375 50.5625 C-8.50653564 50.3157251 -9.57557129 50.0689502 -10.67700195 49.81469727 C-17.19095568 48.38819878 -23.54823417 47.595838 -30.20727539 47.22631836 C-32.60193142 47.0322589 -34.7015118 46.67075162 -37 46 C-37.17305664 46.86637085 -37.17305664 46.86637085 -37.34960938 47.75024414 C-37.51267578 48.56614014 -37.67574219 49.38203613 -37.84375 50.22265625 C-38.02679688 51.13934082 -38.20984375 52.05602539 -38.3984375 53.00048828 C-38.79671811 54.98639558 -39.19772203 56.97175882 -39.6015625 58.95654297 C-42.20207817 71.76367116 -44.52373786 84.43694306 -45.640625 97.46484375 C-46 101 -46 101 -47 104 C-47.70125 103.855625 -48.4025 103.71125 -49.125 103.5625 C-54.76119864 102.32944279 -54.76119864 102.32944279 -60.4765625 102.27734375 C-63.84522408 102.47187209 -65.86882436 102.32423526 -69 101 C-71.60425467 98.12400542 -73.39971055 94.75347059 -75.27783203 91.37866211 C-78.96352549 84.76140206 -83.30438962 80.04122111 -89 75 C-89.867242 77.41267325 -90.71896936 79.82904469 -91.5625 82.25 C-91.80935547 82.93191406 -92.05621094 83.61382812 -92.31054688 84.31640625 C-93.22326849 86.96458446 -94.00218129 89.38487628 -93.9921875 92.203125 C-92.41498118 95.05948291 -90.16224556 96.55262505 -87.5625 98.5 C-86.99700439 98.92506836 -86.43150879 99.35013672 -85.84887695 99.78808594 C-80.19536387 103.97699359 -74.33702764 107.86864645 -68.44555664 111.71289062 C-53.14055623 121.71888754 -53.14055623 121.71888754 -50 128 C-49.9375 130.1875 -49.9375 130.1875 -51 132 C-57.18887124 137.02845788 -65.90548781 137.28391447 -73.55859375 137.2734375 C-75.17904303 137.29375304 -76.79948567 137.31460426 -78.41992188 137.3359375 C-80.91371301 137.35829244 -83.40723707 137.37492802 -85.90112305 137.38085938 C-98.13256145 137.42964365 -109.15435319 138.98733272 -121 142 C-124.63250738 142.83046316 -126.40668661 143.18808909 -129.8125 141.625 C-133.9029483 139.91869871 -137.59436268 139.39336048 -142 139 C-141.70967339 137.52056973 -141.41764321 136.04147377 -141.125 134.5625 C-140.85236328 133.18384766 -140.85236328 133.18384766 -140.57421875 131.77734375 C-140.07796063 129.37707487 -139.51845844 127.00561919 -138.9375 124.625 C-133.74521371 100.61586822 -140.18336652 76.28888831 -149.40869141 54.11523438 C-151.42957233 49.13628051 -152.42890919 45.379539 -152 40 C-141.84962406 36.21052632 -141.84962406 36.21052632 -137 37 C-133.78683708 39.68472213 -132.4908144 41.82131774 -131.375 45.8125 C-127.39803565 57.49385804 -117.29508336 73.13661109 -107 80 C-109.46703067 69.66327933 -112.27236353 60.40013042 -118.3125 51.5 C-120 49 -120 49 -120 47 C-110.09697886 45.60372095 -102.56165415 44.77527615 -93.96484375 50.71875 C-92.98644531 51.4715625 -92.00804687 52.224375 -91 53 C-89.83551316 53.84496098 -88.67010792 54.68865736 -87.50390625 55.53125 C-77.79305534 62.71202067 -69.57720428 70.80682143 -63 81 C-62.81050781 80.04867187 -62.81050781 80.04867187 -62.6171875 79.078125 C-62.41351563 78.06234375 -62.20984375 77.0465625 -62 76 C-61.8649707 75.32388672 -61.72994141 74.64777344 -61.59082031 73.95117188 C-61.10822702 71.54952423 -60.61696631 69.14974405 -60.125 66.75 C-59.96386719 65.94175781 -59.80273438 65.13351563 -59.63671875 64.30078125 C-58.616383 59.35729408 -57.30813973 54.66413542 -55.58154297 49.91894531 C-54.85498616 47.85567908 -54.85498616 47.85567908 -55 45 C-56.25554687 44.82984375 -57.51109375 44.6596875 -58.8046875 44.484375 C-77.92027853 41.76693449 -77.92027853 41.76693449 -84 38 C-86 35 -86 35 -86.0625 32.25 C-82.97063877 22.79254213 -72.57504904 18.40615061 -64.27548218 14.09786987 C-57.75582669 10.95228015 -50.82493867 8.8638282 -43.9375 6.6875 C-42.40251618 6.18570652 -40.86800896 5.68245273 -39.33398438 5.17773438 C-34.9051261 3.73178934 -30.45982545 2.34720537 -26 1 C-25.29158966 0.7850589 -24.58317932 0.5701178 -23.853302 0.34866333 C-21.82334267 -0.25855576 -19.78860771 -0.84443642 -17.75 -1.421875 C-16.00783203 -1.92025879 -16.00783203 -1.92025879 -14.23046875 -2.42871094 C-8.96299012 -3.36023301 -4.84896805 -1.99209197 0 0 Z M-127 80 C-126 82 -126 82 -126 82 Z M-126 82 C-125.51587783 86.27641247 -124.91038033 90.41958639 -124 94.625 C-122.22636535 103.92996387 -122.30743992 113.55559566 -122 123 C-121.24074219 122.65066406 -120.48148438 122.30132812 -119.69921875 121.94140625 C-118.20841797 121.25884766 -118.20841797 121.25884766 -116.6875 120.5625 C-115.70136719 120.11003906 -114.71523437 119.65757812 -113.69921875 119.19140625 C-108.66811542 116.97073112 -104.44736285 116.42558564 -99 117 C-96.0625 118.5 -96.0625 118.5 -94 120 C-93.34 120 -92.68 120 -92 120 C-92.495 120.99 -92.495 120.99 -93 122 C-94.65 122 -96.3 122 -98 122 C-98 122.66 -98 123.32 -98 124 C-98.65226562 124.18175781 -99.30453125 124.36351562 -99.9765625 124.55078125 C-104.92730011 125.97466596 -109.46546423 127.49407234 -114 130 C-114 130.33 -114 130.66 -114 131 C-109.12472172 130.76253539 -104.25017893 130.51398262 -99.37597656 130.25537109 C-97.71955534 130.16902504 -96.06297628 130.08565154 -94.40625 130.00537109 C-92.01774639 129.88910379 -89.63002443 129.76197358 -87.2421875 129.6328125 C-86.50757294 129.59938751 -85.77295837 129.56596252 -85.01608276 129.53152466 C-80.70375973 129.28587698 -77.0287446 128.55719014 -73 127 C-73.30916013 123.83110865 -73.72189398 122.30204138 -75.90625 119.9296875 C-82.23700043 114.91466532 -88.77055332 110.48834296 -95.58227539 106.15991211 C-105.72020644 99.68431006 -114.85083 92.55961371 -123.171875 83.8359375 C-123.77515625 83.23007813 -124.3784375 82.62421875 -125 82 C-125.33 82 -125.66 82 -126 82 Z " fill="#000000" transform="translate(190,80)"/>
<path d="M0 0 C5.0219481 0.91220855 9.66246374 2.95131599 14.3125 5 C12.94340406 8.19355387 11.51891644 9.90914664 8.75 11.98828125 C8.04101562 12.52727051 7.33203125 13.06625977 6.6015625 13.62158203 C5.05581874 14.76341451 3.5089138 15.90367647 1.9609375 17.04248047 C0.80464844 17.89350342 0.80464844 17.89350342 -0.375 18.76171875 C-1.12652344 19.3139209 -1.87804687 19.86612305 -2.65234375 20.43505859 C-4.87395485 22.09035709 -4.87395485 22.09035709 -7.4375 24.58203125 C-9.91227315 26.82909089 -11.45776835 28.09034585 -14.6875 29 C-20.62561381 28.41121483 -26.17553014 26.16478646 -31.6875 24 C-32.6775 23.67 -33.6675 23.34 -34.6875 23 C-33.6875 20 -33.6875 20 -31.16796875 18.4921875 C-29.53794922 17.69167969 -29.53794922 17.69167969 -27.875 16.875 C-19.88004792 12.73240107 -12.88653599 7.64669643 -6.07421875 1.73046875 C-3.6875 0 -3.6875 0 0 0 Z " fill="#000000" transform="translate(204.6875,86)"/>
<path d="M0 0 C2.0625 1.5 2.0625 1.5 3 4 C3.32420705 7.0367394 3.44985836 9.97368013 3 13 C0.50959058 15.49040942 -0.43154357 15.32391014 -3.875 15.375 C-7.43696344 15.31332098 -8.62450281 15.27475404 -11.5625 13.125 C-14.17081936 9.26922356 -14.49371204 6.69026438 -14 2 C-10.06240549 -2.06461368 -5.0982369 -1.40471653 0 0 Z " fill="#000000" transform="translate(258,197)"/>
</svg>
